<?xml version="1.0" encoding="UTF-8" standalone="no"?>
<!DOCTYPE svg PUBLIC "-//W3C//DTD SVG 1.1//EN" "http://www.w3.org/Graphics/SVG/1.1/DTD/svg11.dtd">
<!-- Created with Vectornator (http://vectornator.io/) -->
<svg height="100%" stroke-miterlimit="10" style="fill-rule:nonzero;clip-rule:evenodd;stroke-linecap:round;stroke-linejoin:round;" version="1.1" viewBox="0 0 1444 3615" width="100%" xml:space="preserve" xmlns="http://www.w3.org/2000/svg" xmlns:vectornator="http://vectornator.io" xmlns:xlink="http://www.w3.org/1999/xlink">
<defs/>
<path d="M0 0L1444 0L1444 3615L0 3615L0 0Z" fill="#ffffff" fill-rule="nonzero" opacity="1" stroke="none" vectornator:artboardBackground="true"/>
<clipPath id="ArtboardFrame">
<rect height="3615" width="1444" x="0" y="0"/>
</clipPath>
<g clip-path="url(#ArtboardFrame)" id="Capa-1" vectornator:layerName="Capa 1">
<path d="M0-137.475L1444-137.475L1444 3615L0 3615L0-137.475Z" fill="#0d0d0d" fill-rule="nonzero" opacity="1" stroke="#7e42fb" stroke-linecap="butt" stroke-linejoin="miter" stroke-width="5" vectornator:layerName="Rectángulo 1"/>
<g opacity="1" vectornator:layerName="Logros.svg">
<path d="M0 2853L1440 2853L1440 2853L1440 3612L1440 3612L0 3612L0 3612L0 2853L0 2853Z" fill="#0d0d0d" fill-rule="nonzero" opacity="1" stroke="none" vectornator:layerName="rect"/>
<path d="M943.5 3612L943.5 2853" fill="none" opacity="1" stroke="#7e42fb" stroke-linecap="butt" stroke-linejoin="miter" stroke-width="5" vectornator:layerName="line"/>
</g>
<g opacity="1" vectornator:layerName="rect">
<clipPath clip-rule="nonzero" id="ClipPath">
<path d="M0 0L1440 0L1440 0L1440 708L1440 708L0 708L0 708L0 0L0 0Z"/>
</clipPath>
<g clip-path="url(#ClipPath)">
<path d="M0 0L1440 0L1440 0L1440 708L1440 708L0 708L0 708L0 0L0 0Z" fill="#0d0d0d" fill-rule="nonzero" opacity="1" stroke="none" vectornator:layerName="rect"/>
<path d="M-0.736517 194.232L195.263-1.76776" fill="none" opacity="1" stroke="#7e42fb" stroke-linecap="butt" stroke-linejoin="miter" stroke-width="5" vectornator:layerName="line"/>
<path d="M-1.76777 392.232L392.232-1.76775" fill="none" opacity="1" stroke="#7e42fb" stroke-linecap="butt" stroke-linejoin="miter" stroke-width="5" vectornator:layerName="line"/>
<path d="M943.5 708L943.5 2" fill="none" opacity="1" stroke="#7e42fb" stroke-linecap="butt" stroke-linejoin="miter" stroke-width="5" vectornator:layerName="line"/>
</g>
</g>
<g opacity="1" vectornator:layerName="rect 1">
<clipPath clip-rule="nonzero" id="ClipPath_2">
<path d="M0 2103L1440 2103L1440 2103L1440 2853L1440 2853L0 2853L0 2853L0 2103L0 2103Z"/>
</clipPath>
<g clip-path="url(#ClipPath_2)">
<path d="M0 2103L1440 2103L1440 2103L1440 2853L1440 2853L0 2853L0 2853L0 2103L0 2103Z" fill="#0d0d0d" fill-rule="nonzero" opacity="1" stroke="none" vectornator:layerName="rect"/>
<path d="M943.5 2853L943.5 2103" fill="none" opacity="1" stroke="#7e42fb" stroke-linecap="butt" stroke-linejoin="miter" stroke-width="5" vectornator:layerName="line"/>
<path d="M2.18557e-07 2469.5L1440 2469.5" fill="none" opacity="1" stroke="#7e42fb" stroke-linecap="butt" stroke-linejoin="miter" stroke-width="5" vectornator:layerName="line"/>
<path d="M2.88177 2281.43L364.135 2100.76" fill="none" opacity="1" stroke="#7e42fb" stroke-linecap="butt" stroke-linejoin="miter" stroke-width="5" vectornator:layerName="line"/>
</g>
</g>
<g opacity="1" vectornator:layerName="rect 2">
<clipPath clip-rule="nonzero" id="ClipPath_3">
<path d="M0 708L1440 708L1440 708L1440 1515L1440 1515L0 1515L0 1515L0 708L0 708Z"/>
</clipPath>
<g clip-path="url(#ClipPath_3)">
<path d="M0 708L1440 708L1440 708L1440 1515L1440 1515L0 1515L0 1515L0 708L0 708Z" fill="#0d0d0d" fill-rule="nonzero" opacity="1" stroke="none" vectornator:layerName="rect"/>
<path d="M1439.4 1266.43L-0.60316 908.426" fill="none" opacity="1" stroke="#7e42fb" stroke-linecap="butt" stroke-linejoin="miter" stroke-width="5" vectornator:layerName="line"/>
<path d="M943.5 1515L943.5 708" fill="none" opacity="1" stroke="#7e42fb" stroke-linecap="butt" stroke-linejoin="miter" stroke-width="5" vectornator:layerName="line"/>
</g>
</g>
<g opacity="1" vectornator:layerName="rect 3">
<clipPath clip-rule="nonzero" id="ClipPath_4">
<path d="M0 1515L1440 1515L1440 1515L1440 2106L1440 2106L0 2106L0 2106L0 1515L0 1515Z"/>
</clipPath>
<g clip-path="url(#ClipPath_4)">
<path d="M0 1515L1440 1515L1440 1515L1440 2106L1440 2106L0 2106L0 2106L0 1515L0 1515Z" fill="#0d0d0d" fill-rule="nonzero" opacity="1" stroke="none" vectornator:layerName="rect"/>
<path d="M943.5 2106L943.5 1515" fill="none" opacity="1" stroke="#7e42fb" stroke-linecap="butt" stroke-linejoin="miter" stroke-width="5" vectornator:layerName="line"/>
<path d="M349.881 2110.76L1438.88 1565.76" fill="none" opacity="1" stroke="#7e42fb" stroke-linecap="butt" stroke-linejoin="miter" stroke-width="5" vectornator:layerName="line"/>
</g>
</g>
</g>
</svg>
